# xmcd
#
# Track frame offsets:
# 150
# 17242
# 30768
# 46886
# 54997
# 67952
# 83258
# 97389
# 107876
# 124214
#
# Disc length: 1841 seconds
#
#
# Revision: 1
# Processed by: cddbd v1.5.1PL2 Copyright (c) Steve Scherf et al.
# Submitted via: FreeRIP 2.944 
#
DISCID=76072f0a
DTITLE=Silver Sun - Disappear Here
DYEAR=2004
DGENRE=Rock
TTITLE0=Bubblegum
TTITLE1=Lies
TTITLE2=Can't Get You Out Of My Head
TTITLE3=Found You In A Dream
TTITLE4=Immediate
TTITLE5=Jody
TTITLE6=Garlic
TTITLE7=Pipsqueak
TTITLE8=She Wants A Puppy, She'll Have A Puppy
TTITLE9=You Can't Kill Rock and Roll
EXTD=YEAR: 2004
EXTT0=
EXTT1=
EXTT2=
EXTT3=
EXTT4=
EXTT5=
EXTT6=
EXTT7=
EXTT8=
EXTT9=
PLAYORDER=
